<svg width="414" height="896" viewBox="0 0 414 896" fill="none" xmlns="http://www.w3.org/2000/svg">
<rect width="414" height="896" fill="white"/>
<rect y="178" width="414" height="718" rx="1" fill="#586BA4"/>
<path d="M0 1.00001C0 0.44772 0.447715 0 1 0H413C413.552 0 414 0.447715 414 1V176C414 176.552 413.552 177 413 177H1.00001C0.447723 177 0 176.552 0 176V1.00001Z" fill="#586BA4"/>
<rect x="18" y="17" width="377" height="144" rx="15" fill="#324376"/>
<path d="M241.594 133V128.781L256.5 112.219C258.271 110.24 259.656 108.552 260.656 107.156C261.656 105.74 262.354 104.458 262.75 103.312C263.146 102.167 263.344 100.979 263.344 99.75C263.344 97.4792 262.656 95.5729 261.281 94.0312C259.906 92.4688 257.938 91.6875 255.375 91.6875C252.708 91.6875 250.625 92.4896 249.125 94.0938C247.646 95.6979 246.906 97.9688 246.906 100.906H241L240.938 100.719C240.875 98.0938 241.427 95.7396 242.594 93.6562C243.76 91.5521 245.448 89.8958 247.656 88.6875C249.885 87.4583 252.531 86.8438 255.594 86.8438C258.469 86.8438 260.938 87.3958 263 88.5C265.083 89.5833 266.688 91.0729 267.812 92.9688C268.938 94.8646 269.5 97.0417 269.5 99.5C269.5 102 268.76 104.49 267.281 106.969C265.823 109.448 263.76 112.125 261.094 115L249.125 128.031L249.188 128.188H265.344L265.844 122.969H271.062V133H241.594ZM304.688 128.438V114.094H292.156V108.531H304.688V95.3125H310.844V108.531H323.344V114.094H310.844V128.438H304.688ZM344.656 133V128.781L359.562 112.219C361.333 110.24 362.719 108.552 363.719 107.156C364.719 105.74 365.417 104.458 365.812 103.312C366.208 102.167 366.406 100.979 366.406 99.75C366.406 97.4792 365.719 95.5729 364.344 94.0312C362.969 92.4688 361 91.6875 358.438 91.6875C355.771 91.6875 353.688 92.4896 352.188 94.0938C350.708 95.6979 349.969 97.9688 349.969 100.906H344.062L344 100.719C343.938 98.0938 344.49 95.7396 345.656 93.6562C346.823 91.5521 348.51 89.8958 350.719 88.6875C352.948 87.4583 355.594 86.8438 358.656 86.8438C361.531 86.8438 364 87.3958 366.062 88.5C368.146 89.5833 369.75 91.0729 370.875 92.9688C372 94.8646 372.562 97.0417 372.562 99.5C372.562 102 371.823 104.49 370.344 106.969C368.885 109.448 366.823 112.125 364.156 115L352.188 128.031L352.25 128.188H368.406L368.906 122.969H374.125V133H344.656Z" fill="#F76C5E"/>
<rect x="54" y="788" width="311" height="74" fill="#F5DD90"/>
<path d="M188.038 820.207V811.879H230.389V820.207H188.038ZM188.038 841.332V833.004H230.389V841.332H188.038Z" fill="#586BA4"/>
<rect x="70" y="703" width="57" height="54" fill="#F76C5E"/>
<rect x="143" y="703" width="57" height="54" fill="#F76C5E"/>
<rect x="214" y="703" width="57" height="54" fill="#F76C5E"/>
<rect x="287" y="703" width="57" height="54" fill="#F76C5E"/>
<path d="M84.7344 751V747.678L87.8984 747.071L96.415 736.577L88.083 726.426L85.2617 725.819V722.471H96.4414V725.819L93.5938 726.136L99.4473 733.413L105.143 726.109L102.084 725.819V722.471H113.079V725.819L110.179 726.426L102.453 736.498L111.339 747.071L114.292 747.678V751H102.189V747.678L105.617 747.388L99.3682 739.768L93.3037 747.388L96.3887 747.678V751H84.7344Z" fill="white"/>
<path d="M168.89 724.659V719.307H174.11V724.659H168.89ZM158.316 735.259V730.302H184.631V735.259H158.316ZM168.89 746.254V740.901H174.11V746.254H168.89Z" fill="white"/>
<path d="M241.89 747.15V735.048H231.316V730.354H241.89V719.201H247.084V730.354H257.631V735.048H247.084V747.15H241.89Z" fill="white"/>
<path d="M308.04 736.814V732.754H320.934V736.814H308.04Z" fill="white"/>
<rect x="54" y="239" width="93" height="94" fill="#324376"/>
<rect x="272" y="352" width="93" height="94" fill="#324376"/>
<rect x="272" y="465" width="93" height="94" fill="#324376"/>
<rect x="163" y="239" width="93" height="94" fill="#324376"/>
<rect x="163" y="352" width="93" height="94" fill="#324376"/>
<rect x="163" y="465" width="93" height="94" fill="#324376"/>
<rect x="54" y="578" width="311" height="94" fill="#324376"/>
<rect x="271" y="239" width="93" height="94" fill="#324376"/>
<rect x="54" y="352" width="93" height="94" fill="#324376"/>
<rect x="54" y="465" width="93" height="94" fill="#324376"/>
<path d="M91.0938 537V533.062L98.125 532.188V498.094L90.9688 498.219V494.375L104.281 491.5V532.188L111.281 533.062V537H91.0938Z" fill="white"/>
<path d="M193.844 537V532.781L208.75 516.219C210.521 514.24 211.906 512.552 212.906 511.156C213.906 509.74 214.604 508.458 215 507.312C215.396 506.167 215.594 504.979 215.594 503.75C215.594 501.479 214.906 499.573 213.531 498.031C212.156 496.469 210.188 495.688 207.625 495.688C204.958 495.688 202.875 496.49 201.375 498.094C199.896 499.698 199.156 501.969 199.156 504.906H193.25L193.188 504.719C193.125 502.094 193.677 499.74 194.844 497.656C196.01 495.552 197.698 493.896 199.906 492.688C202.135 491.458 204.781 490.844 207.844 490.844C210.719 490.844 213.188 491.396 215.25 492.5C217.333 493.583 218.938 495.073 220.062 496.969C221.188 498.865 221.75 501.042 221.75 503.5C221.75 506 221.01 508.49 219.531 510.969C218.073 513.448 216.01 516.125 213.344 519L201.375 532.031L201.438 532.188H217.594L218.094 526.969H223.312V537H193.844Z" fill="white"/>
<path d="M209.531 650.656C205.073 650.656 201.542 649.104 198.938 646C196.333 642.896 195.031 638.448 195.031 632.656V621.875C195.031 616.083 196.323 611.635 198.906 608.531C201.49 605.406 205.01 603.844 209.469 603.844C213.948 603.844 217.49 605.406 220.094 608.531C222.698 611.635 224 616.083 224 621.875V632.656C224 638.469 222.708 642.927 220.125 646.031C217.542 649.115 214.01 650.656 209.531 650.656ZM209.531 645.844C215.073 645.844 217.844 641.865 217.844 633.906V620.562C217.844 612.646 215.052 608.688 209.469 608.688C206.781 608.688 204.729 609.688 203.312 611.688C201.896 613.667 201.188 616.625 201.188 620.562V633.906C201.188 637.844 201.906 640.823 203.344 642.844C204.781 644.844 206.844 645.844 209.531 645.844Z" fill="white"/>
<path d="M317.781 537.656C315.01 537.656 312.542 537.156 310.375 536.156C308.208 535.135 306.51 533.698 305.281 531.844C304.073 529.969 303.5 527.75 303.562 525.188L303.656 525H309.531C309.531 527.396 310.26 529.302 311.719 530.719C313.198 532.135 315.219 532.844 317.781 532.844C320.385 532.844 322.427 532.135 323.906 530.719C325.385 529.302 326.125 527.208 326.125 524.438C326.125 521.625 325.469 519.552 324.156 518.219C322.844 516.885 320.771 516.219 317.938 516.219H312.562V511.406H317.938C320.667 511.406 322.594 510.729 323.719 509.375C324.865 508 325.438 506.094 325.438 503.656C325.438 498.344 322.885 495.688 317.781 495.688C315.385 495.688 313.458 496.396 312 497.812C310.562 499.208 309.844 501.073 309.844 503.406H303.938L303.875 503.219C303.812 500.927 304.354 498.844 305.5 496.969C306.667 495.094 308.302 493.604 310.406 492.5C312.531 491.396 314.99 490.844 317.781 490.844C321.99 490.844 325.344 491.969 327.844 494.219C330.344 496.448 331.594 499.635 331.594 503.781C331.594 505.656 331.021 507.531 329.875 509.406C328.75 511.26 327.052 512.677 324.781 513.656C327.51 514.552 329.438 515.958 330.562 517.875C331.708 519.792 332.281 521.938 332.281 524.312C332.281 527.083 331.656 529.469 330.406 531.469C329.177 533.448 327.469 534.979 325.281 536.062C323.094 537.125 320.594 537.656 317.781 537.656Z" fill="white"/>
<path d="M97.25 424V420.062L102.344 419.188V413.5H81.9062V410.031L101.969 378.5H108.469V408.688H114.75V413.5H108.469V419.188L113.562 420.062V424H97.25ZM88.4688 408.688H102.344V387.281L102.156 387.219L101.531 388.875L88.4688 408.688Z" fill="white"/>
<path d="M207.906 424.656C205.344 424.656 203.042 424.188 201 423.25C198.979 422.312 197.396 420.927 196.25 419.094C195.104 417.24 194.562 414.948 194.625 412.219L194.688 412.031H200.25C200.25 414.49 200.958 416.406 202.375 417.781C203.812 419.156 205.656 419.844 207.906 419.844C210.51 419.844 212.531 418.927 213.969 417.094C215.406 415.26 216.125 412.75 216.125 409.562C216.125 406.625 215.396 404.229 213.938 402.375C212.5 400.5 210.5 399.562 207.938 399.562C205.521 399.562 203.76 399.927 202.656 400.656C201.573 401.385 200.781 402.5 200.281 404L195.156 403.469L197.781 378.5H221.812V387.5H217.188L216.594 383.969H203L201.531 396.75C202.469 396.042 203.521 395.458 204.688 395C205.875 394.521 207.24 394.26 208.781 394.219C212.969 394.177 216.26 395.542 218.656 398.312C221.073 401.083 222.281 404.812 222.281 409.5C222.281 414.062 221.052 417.729 218.594 420.5C216.156 423.271 212.594 424.656 207.906 424.656Z" fill="white"/>
<path d="M319.812 424.656C316.854 424.656 314.208 423.938 311.875 422.5C309.562 421.042 307.74 418.927 306.406 416.156C305.073 413.385 304.406 410.031 304.406 406.094V399.969C304.406 395.156 305.125 391.115 306.562 387.844C308.021 384.552 310.021 382.062 312.562 380.375C315.125 378.688 318.062 377.844 321.375 377.844C322.917 377.844 324.448 378.021 325.969 378.375C327.51 378.729 328.781 379.177 329.781 379.719L328.594 384.312C327.615 383.833 326.542 383.448 325.375 383.156C324.208 382.844 322.875 382.688 321.375 382.688C318.188 382.688 315.646 383.896 313.75 386.312C311.875 388.708 310.875 392.333 310.75 397.188L310.875 397.312C312.042 396.229 313.469 395.375 315.156 394.75C316.844 394.104 318.667 393.781 320.625 393.781C323.333 393.781 325.688 394.427 327.688 395.719C329.688 396.99 331.229 398.75 332.312 401C333.417 403.25 333.969 405.812 333.969 408.688C333.969 411.833 333.385 414.604 332.219 417C331.052 419.396 329.406 421.271 327.281 422.625C325.156 423.979 322.667 424.656 319.812 424.656ZM319.812 419.844C322.333 419.844 324.292 418.781 325.688 416.656C327.104 414.51 327.812 411.854 327.812 408.688C327.812 405.688 327.052 403.219 325.531 401.281C324.031 399.344 321.948 398.375 319.281 398.375C317.177 398.375 315.385 398.802 313.906 399.656C312.427 400.49 311.302 401.615 310.531 403.031V406.688C310.531 410.917 311.406 414.167 313.156 416.438C314.927 418.708 317.146 419.844 319.812 419.844Z" fill="white"/>
<path d="M92.0312 311L92.5312 306.094C93.1146 301.302 94.0625 296.875 95.375 292.812C96.6875 288.75 98.3854 284.885 100.469 281.219C102.552 277.552 105.052 273.927 107.969 270.344H88.9688L88.5 275.562H83.25V265.5H114V270.344C111.25 273.615 108.979 276.656 107.188 279.469C105.396 282.26 103.948 285.021 102.844 287.75C101.76 290.458 100.906 293.292 100.281 296.25C99.6562 299.208 99.125 302.49 98.6875 306.094L98.1875 311H92.0312Z" fill="white"/>
<path d="M207.5 311.656C203.042 311.656 199.458 310.552 196.75 308.344C194.042 306.115 192.688 302.896 192.688 298.688C192.688 296.125 193.458 293.865 195 291.906C196.542 289.948 198.625 288.51 201.25 287.594C198.979 286.719 197.198 285.396 195.906 283.625C194.615 281.833 193.969 279.75 193.969 277.375C193.969 273.375 195.198 270.292 197.656 268.125C200.135 265.938 203.396 264.844 207.438 264.844C211.438 264.844 214.698 265.938 217.219 268.125C219.76 270.292 221.031 273.375 221.031 277.375C221.031 279.75 220.365 281.833 219.031 283.625C217.698 285.396 215.896 286.719 213.625 287.594C216.25 288.51 218.344 289.948 219.906 291.906C221.49 293.865 222.281 296.125 222.281 298.688C222.281 302.896 220.906 306.115 218.156 308.344C215.427 310.552 211.875 311.656 207.5 311.656ZM207.5 285.156C209.667 285.156 211.438 284.458 212.812 283.062C214.188 281.667 214.875 279.812 214.875 277.5C214.875 275.25 214.167 273.385 212.75 271.906C211.354 270.427 209.583 269.688 207.438 269.688C205.25 269.688 203.479 270.406 202.125 271.844C200.792 273.26 200.125 275.146 200.125 277.5C200.125 279.812 200.802 281.667 202.156 283.062C203.51 284.458 205.292 285.156 207.5 285.156ZM207.5 306.844C210.062 306.844 212.146 306.104 213.75 304.625C215.354 303.146 216.156 301.125 216.156 298.562C216.156 296.062 215.333 294.01 213.688 292.406C212.042 290.802 209.958 290 207.438 290C204.896 290 202.823 290.802 201.219 292.406C199.635 293.99 198.844 296.042 198.844 298.562C198.844 301.146 199.625 303.177 201.188 304.656C202.771 306.115 204.875 306.844 207.5 306.844Z" fill="white"/>
<path d="M312.438 311.656C310.854 311.656 309.229 311.5 307.562 311.188C305.917 310.896 304.438 310.438 303.125 309.812L304.062 305.156C305.333 305.76 306.625 306.198 307.938 306.469C309.271 306.719 310.771 306.844 312.438 306.844C315.396 306.844 317.729 305.719 319.438 303.469C321.167 301.198 322.062 297.552 322.125 292.531L322 292.375C321.167 293.771 320 294.844 318.5 295.594C317 296.344 315.312 296.719 313.438 296.719C309 296.719 305.5 295.354 302.938 292.625C300.375 289.875 299.094 286.021 299.094 281.062C299.094 277.896 299.719 275.094 300.969 272.656C302.24 270.219 303.938 268.312 306.062 266.938C308.208 265.542 310.583 264.844 313.188 264.844C317.938 264.844 321.677 266.333 324.406 269.312C327.156 272.271 328.531 276.656 328.531 282.469V290.688C328.531 297.792 327.062 303.062 324.125 306.5C321.208 309.938 317.312 311.656 312.438 311.656ZM313.438 291.875C315.708 291.875 317.594 291.385 319.094 290.406C320.615 289.427 321.708 288.177 322.375 286.656V281.844C322.375 273.74 319.375 269.688 313.375 269.688C311.854 269.688 310.479 270.177 309.25 271.156C308.021 272.115 307.042 273.448 306.312 275.156C305.604 276.865 305.25 278.833 305.25 281.062C305.25 284.333 305.979 286.958 307.438 288.938C308.896 290.896 310.896 291.875 313.438 291.875Z" fill="white"/>
</svg>
